<svg width="256" height="250" viewBox="0 0 256 250" fill="none" xmlns="http://www.w3.org/2000/svg">
<path d="M213.5 0H42.5C19.0279 0 0 19.0279 0 42.5V207.1C0 230.572 19.0279 249.6 42.5 249.6H213.5C236.972 249.6 256 230.572 256 207.1V42.5C256 19.0279 236.972 0 213.5 0Z" fill="#C9C9C9"/>
<path d="M128.217 158.457H88.5472L80.4752 183.53C80.3654 183.987 80.0994 184.392 79.7232 184.674C79.3469 184.956 78.884 185.099 78.4142 185.076H58.3212C57.1758 185.076 56.7752 184.446 57.1192 183.186L91.4662 84.268C91.8095 83.238 92.1528 82.0647 92.4962 80.748C92.9462 78.456 93.1762 76.128 93.1832 73.793C93.1598 73.6297 93.1748 73.4631 93.2269 73.3066C93.279 73.15 93.3669 73.0078 93.4835 72.8911C93.6001 72.7743 93.7423 72.6864 93.8988 72.6341C94.0553 72.5819 94.2218 72.5668 94.3852 72.59H121.691C122.491 72.59 122.949 72.8767 123.065 73.45L162.048 183.358C162.392 184.505 162.048 185.077 161.018 185.076H138.692C138.309 185.118 137.923 185.019 137.608 184.798C137.292 184.577 137.067 184.248 136.975 183.874L128.217 158.457ZM94.7292 136.819H121.863L121.476 135.542L120.855 133.52L120.412 132.1L119.705 129.864L118.202 125.157L116.88 120.984L113.447 110.114C112.593 107.412 111.773 104.699 110.987 101.976L110.359 99.766L109.625 97.153L108.505 93.103L108.295 92.34H108.124C107.265 96.4621 106.218 100.543 104.988 104.57L102.44 112.766L101.038 117.294L99.6232 121.878C99.3678 122.706 99.1128 123.525 98.8582 124.334L98.0982 126.732L97.3422 129.074L96.5902 131.358L95.8422 133.585C95.5942 134.318 95.3465 135.042 95.0992 135.755L94.7292 136.819ZM185.23 90.794C183.479 90.8641 181.732 90.5638 180.105 89.9128C178.477 89.2618 177.005 88.2747 175.785 87.016C174.569 85.702 173.625 84.1609 173.006 82.4811C172.387 80.8013 172.106 79.0158 172.178 77.227C172.116 75.4561 172.428 73.692 173.094 72.0499C173.76 70.4077 174.764 68.9245 176.042 67.697C178.507 65.3306 181.79 64.0064 185.207 64L185.573 64.004C189.695 64.004 192.93 65.2347 195.277 67.696C196.462 68.9753 197.382 70.4755 197.986 72.111C198.59 73.7464 198.866 75.4849 198.797 77.227C198.87 79.023 198.58 80.8153 197.946 82.4972C197.312 84.1791 196.346 85.7162 195.105 87.017C193.853 88.2509 192.367 89.2218 190.734 89.8727C189.101 90.5236 187.355 90.8412 185.597 90.807L185.23 90.794ZM173.38 183.358V101.27C173.38 100.239 173.838 99.724 174.754 99.724H195.878C196.794 99.724 197.252 100.239 197.252 101.27V183.358C197.252 184.505 196.794 185.077 195.878 185.076H174.926C173.95 185.076 173.437 184.562 173.385 183.534L173.38 183.358Z" fill="#B9B7B7"/>
</svg>
