<svg width="170" height="158" viewBox="0 0 170 158" fill="none" xmlns="http://www.w3.org/2000/svg">
<path fill-rule="evenodd" clip-rule="evenodd" d="M53.4286 6.74603C53.4286 4.95687 52.661 3.24099 51.2946 1.97587C49.9283 0.71074 48.0751 0 46.1429 0C44.2106 0 42.3574 0.71074 40.9911 1.97587C39.6247 3.24099 38.8571 4.95687 38.8571 6.74603V17.9894H36.4286C31.9199 17.9894 27.5959 19.6478 24.4078 22.5998C21.2196 25.5517 19.4286 29.5555 19.4286 33.7302V35.9788H7.28571C5.35342 35.9788 3.50027 36.6896 2.13394 37.9547C0.767599 39.2198 0 40.9357 0 42.7249C0 44.514 0.767599 46.2299 2.13394 47.495C3.50027 48.7602 5.35342 49.4709 7.28571 49.4709H19.4286V71.9577H7.28571C5.35342 71.9577 3.50027 72.6684 2.13394 73.9335C0.767599 75.1987 0 76.9145 0 78.7037C0 80.4929 0.767599 82.2087 2.13394 83.4739C3.50027 84.739 5.35342 85.4497 7.28571 85.4497H19.4286V107.937H7.28571C5.35342 107.937 3.50027 108.647 2.13394 109.912C0.767599 111.178 0 112.893 0 114.683C0 116.472 0.767599 118.188 2.13394 119.453C3.50027 120.718 5.35342 121.429 7.28571 121.429H19.4286V123.677C19.4286 132.366 27.0446 139.418 36.4286 139.418H38.8571V150.661C38.8571 152.451 39.6247 154.166 40.9911 155.432C42.3574 156.697 44.2106 157.407 46.1429 157.407C48.0751 157.407 49.9283 156.697 51.2946 155.432C52.661 154.166 53.4286 152.451 53.4286 150.661V139.418H77.7143V150.661C77.7143 152.451 78.4819 154.166 79.8482 155.432C81.2146 156.697 83.0677 157.407 85 157.407C86.9323 157.407 88.7854 156.697 90.1518 155.432C91.5181 154.166 92.2857 152.451 92.2857 150.661V139.418H116.571V150.661C116.571 152.451 117.339 154.166 118.705 155.432C120.072 156.697 121.925 157.407 123.857 157.407C125.789 157.407 127.643 156.697 129.009 155.432C130.375 154.166 131.143 152.451 131.143 150.661V139.418H133.571C138.08 139.418 142.404 137.76 145.592 134.808C148.78 131.856 150.571 127.852 150.571 123.677V121.429H162.714C164.647 121.429 166.5 120.718 167.866 119.453C169.232 118.188 170 116.472 170 114.683C170 112.893 169.232 111.178 167.866 109.912C166.5 108.647 164.647 107.937 162.714 107.937H150.571V85.4497H162.714C164.647 85.4497 166.5 84.739 167.866 83.4739C169.232 82.2087 170 80.4929 170 78.7037C170 76.9145 169.232 75.1987 167.866 73.9335C166.5 72.6684 164.647 71.9577 162.714 71.9577H150.571V49.4709H162.714C164.647 49.4709 166.5 48.7602 167.866 47.495C169.232 46.2299 170 44.514 170 42.7249C170 40.9357 169.232 39.2198 167.866 37.9547C166.5 36.6896 164.647 35.9788 162.714 35.9788H150.571V33.7302C150.571 29.5555 148.78 25.5517 145.592 22.5998C142.404 19.6478 138.08 17.9894 133.571 17.9894H131.143V6.74603C131.143 4.95687 130.375 3.24099 129.009 1.97587C127.643 0.71074 125.789 0 123.857 0C121.925 0 120.072 0.71074 118.705 1.97587C117.339 3.24099 116.571 4.95687 116.571 6.74603V17.9894H92.2857V6.74603C92.2857 4.95687 91.5181 3.24099 90.1518 1.97587C88.7854 0.71074 86.9323 0 85 0C83.0677 0 81.2146 0.71074 79.8482 1.97587C78.4819 3.24099 77.7143 4.95687 77.7143 6.74603V17.9894H53.4286V6.74603ZM34 33.7302C34 33.1338 34.2559 32.5618 34.7113 32.1401C35.1668 31.7184 35.7845 31.4815 36.4286 31.4815H133.571C134.216 31.4815 134.833 31.7184 135.289 32.1401C135.744 32.5618 136 33.1338 136 33.7302V123.677C136 124.274 135.744 124.846 135.289 125.267C134.833 125.689 134.216 125.926 133.571 125.926H36.4286C35.7845 125.926 35.1668 125.689 34.7113 125.267C34.2559 124.846 34 124.274 34 123.677V33.7302ZM83.0474 103.466L80.376 96.5222H60.6851L58.0137 103.466C57.3645 105.152 56.0187 106.529 54.2725 107.296C52.5264 108.062 50.5228 108.155 48.7026 107.554C46.8824 106.953 45.3946 105.707 44.5666 104.09C43.7386 102.473 43.6382 100.618 44.2874 98.9328L60.8017 56.028L60.8309 55.9471L60.8697 55.8571C62.3463 52.3312 65.8823 49.4619 70.5257 49.4619C75.1789 49.4619 78.7051 52.3312 80.1914 55.8661L80.2206 55.9471L80.2594 56.037L96.7737 98.9418C97.3912 100.62 97.2701 102.456 96.4367 104.053C95.6033 105.649 94.1246 106.878 92.3205 107.472C90.5164 108.067 88.532 107.98 86.7965 107.23C85.0611 106.481 83.7143 105.128 83.0474 103.466ZM70.5257 70.9503L75.1789 83.0302H65.8726L70.5257 70.9503ZM106.857 56.1989C106.857 54.4098 107.625 52.6939 108.991 51.4288C110.357 50.1636 112.211 49.4529 114.143 49.4529C116.075 49.4529 117.928 50.1636 119.295 51.4288C120.661 52.6939 121.429 54.4098 121.429 56.1989V101.199C121.429 102.989 120.661 104.705 119.295 105.97C117.928 107.235 116.075 107.946 114.143 107.946C112.211 107.946 110.357 107.235 108.991 105.97C107.625 104.705 106.857 102.989 106.857 101.199V56.1989Z" fill="white"/>
</svg>
