<svg width="165" height="250" viewBox="0 0 165 250" fill="none" xmlns="http://www.w3.org/2000/svg">
<path d="M41.25 250C64.02 250 82.5 231.334 82.5 208.334V166.667H41.25C18.48 166.667 0 185.334 0 208.334C0 231.334 18.48 250 41.25 250Z" fill="#948E8E"/>
<path d="M0 125C0 102 18.48 83.333 41.25 83.333H82.5V166.666H41.25C18.48 166.666 0 148 0 125Z" fill="#A2A9A8"/>
<path d="M0 41.6667C0 18.6667 18.48 0 41.25 0H82.5V83.3333H41.25C18.48 83.3333 0 64.6667 0 41.6667Z" fill="#B9B7B7"/>
<path d="M82.5 0H123.75C146.52 0 165 18.6667 165 41.6667C165 64.6667 146.52 83.3333 123.75 83.3333H82.5V0Z" fill="#C9C9C9"/>
<path d="M165 125C165 148 146.52 166.666 123.75 166.666C100.98 166.666 82.5 148 82.5 125C82.5 102 100.98 83.333 123.75 83.333C146.52 83.333 165 102 165 125Z" fill="#8C8A8A"/>
</svg>
