<svg width="256" height="256" viewBox="0 0 256 256" fill="none" xmlns="http://www.w3.org/2000/svg">
<path d="M196 0H60C26.8629 0 0 26.8629 0 60V196C0 229.137 26.8629 256 60 256H196C229.137 256 256 229.137 256 196V60C256 26.8629 229.137 0 196 0Z" fill="#C9C9C9"/>
<path d="M144.934 38.062L200.709 38L107.134 131.526L82.747 155.777L55 127.996L144.934 38.062ZM144.415 121.569C145.139 120.613 146.471 121.085 147.482 120.962L200.661 120.975L152.194 169.395L124.303 141.675L144.415 121.569Z" fill="#B9B7B7"/>
<path d="M96.501 169.442L124.303 141.675L152.194 169.395L152.31 169.518L124.31 197.258L96.501 169.442Z" fill="#B9B7B7"/>
<path d="M124.31 197.258L152.31 169.518L200.681 217.937C182.461 217.978 164.247 217.923 146.034 217.964C144.996 218.196 144.354 217.247 143.691 216.66L124.31 197.258Z" fill="#A2A9A8"/>
</svg>
