<svg width="207" height="206" viewBox="0 0 207 206" fill="none" xmlns="http://www.w3.org/2000/svg">
<path d="M44.2083 56.4656C76.9216 61.6457 96.417 72.4848 103.14 78.7107C109.863 72.4848 129.359 61.6457 162.083 56.4656C178.652 53.8365 186.942 52.5268 193.991 57.5603C201.052 62.584 201.052 70.7548 201.052 87.0966V145.807C201.052 160.752 201.052 168.219 196.526 172.881C191.99 177.543 182.024 179.126 162.083 182.283C144.296 185.098 130.425 189.584 120.384 194.09C110.494 198.527 105.555 200.746 103.14 200.746M103.14 200.746C100.725 200.746 95.7751 198.527 85.8969 194.1C75.8555 189.584 61.9847 185.098 44.2083 182.273C24.256 179.126 14.2908 177.543 9.75421 172.881C5.21764 168.219 5.22852 160.752 5.22852 145.807V87.0966C5.22852 70.7548 5.22851 62.584 12.289 57.5603C19.3387 52.5268 27.6285 53.8462 44.1974 56.4656M103.14 200.746V73.687M65.0634 15.6211C76.3398 8.85763 89.5983 5.2561 103.157 5.2735C116.715 5.2909 129.962 8.92645 141.217 15.7188M120.786 39.4788C115.471 36.5778 109.375 35.0356 103.155 35.0183C96.9361 35.0011 90.8295 36.5096 85.4944 39.3811" stroke="black" stroke-width="10" stroke-linecap="round" stroke-linejoin="round"/>
</svg>
