<svg width="207" height="206" viewBox="0 0 207 206" fill="none" xmlns="http://www.w3.org/2000/svg">
<path d="M44.2093 56.4656C76.923 61.6457 96.4185 72.4848 103.142 78.7107C109.865 72.4848 129.361 61.6457 162.085 56.4656C178.654 53.8365 186.944 52.5268 193.994 57.5603C201.054 62.584 201.054 70.7548 201.054 87.0965V145.807C201.054 160.752 201.054 168.219 196.529 172.881C191.992 177.543 182.027 179.126 162.085 182.283C144.298 185.098 130.427 189.584 120.385 194.09C110.496 198.527 105.557 200.746 103.142 200.746M103.142 200.746C100.727 200.746 95.7766 198.527 85.8983 194.1C75.8568 189.584 61.9859 185.098 44.2093 182.273C24.2569 179.126 14.2916 177.543 9.75498 172.881C5.21837 168.219 5.22925 160.752 5.22925 145.807V87.0965C5.22925 70.7548 5.22925 62.584 12.2898 57.5603C19.3395 52.5268 27.6295 53.8462 44.1984 56.4656M103.142 200.746V73.687M65.0647 15.6211C76.3411 8.85763 89.5998 5.2561 103.158 5.2735C116.717 5.2909 129.964 8.92645 141.219 15.7188M120.788 39.4788C115.472 36.5778 109.376 35.0355 103.157 35.0183C96.9376 35.0011 90.831 36.5096 85.4958 39.3811" stroke="white" stroke-width="10" stroke-linecap="round" stroke-linejoin="round"/>
</svg>
