<svg width="304" height="55" viewBox="0 0 304 55" fill="none" xmlns="http://www.w3.org/2000/svg">
<path d="M53.0516 4.51863C53.3203 4.37204 53.6451 4.37204 53.9137 4.51863L72.5364 14.679C73.1616 15.0202 73.1616 15.918 72.5364 16.2592L53.9137 26.4196C53.6451 26.5662 53.3203 26.5662 53.0516 26.4196L34.429 16.2592C33.8038 15.918 33.8038 15.0202 34.429 14.679L53.0516 4.51863Z" fill="#121417"/>
<path d="M52.0839 28.2554C52.3808 28.4179 52.5655 28.7179 52.5655 29.0376L52.5655 48.1374C52.5655 48.7952 51.8259 49.1942 51.2101 48.8687L32.9598 39.2201C32.656 39.0595 32.4658 38.7557 32.4658 38.4312L32.4657 18.9929C32.4657 18.3292 33.2174 17.9311 33.8336 18.2683L52.0839 28.2554Z" fill="#121417"/>
<path d="M29.5648 15.9526C29.8658 16.114 30.0538 16.4163 30.0538 16.7389L30.0538 36.3689C30.0538 37.0322 29.3029 37.4304 28.6867 37.0939L22.1901 33.5464C21.8928 33.384 21.7077 33.0838 21.7077 32.7638L21.7077 13.1985C21.7077 12.5384 22.4522 12.1396 23.0681 12.4699L29.5648 15.9526Z" fill="#121417"/>
<path d="M18.9224 10.1714C19.2176 10.3344 19.4009 10.6334 19.4009 10.9519L19.4009 30.4902C19.4009 31.1327 18.6922 31.5336 18.0785 31.2382L15.1999 29.8524C14.8779 29.6974 14.6728 29.384 14.6728 29.0469L14.6728 9.30525C14.6728 8.6401 15.4275 8.24218 16.0438 8.58239L18.9224 10.1714Z" fill="#121417"/>
<path d="M11.8364 6.26748C12.1598 6.42203 12.366 6.73619 12.366 7.07423L12.366 26.5797C12.366 27.2211 11.6595 27.622 11.046 27.3288L10.4741 27.0554C10.1508 26.9009 9.94463 26.5867 9.94463 26.2487L9.94461 6.74325C9.94461 6.10185 10.6511 5.70088 11.2645 5.99411L11.8364 6.26748Z" fill="#121417"/>
<path d="M59.3001 26.0414C59.9171 25.6892 60.6857 26.0864 60.6858 26.7574L60.6858 29.9473C60.6858 30.2694 60.4979 30.571 60.197 30.732L56.822 32.5379C56.2055 32.8679 55.4598 32.4688 55.4598 31.809L55.4598 28.7394C55.4598 28.4264 55.6374 28.132 55.9252 27.9677L59.3001 26.0414Z" fill="#121417"/>
<path d="M66.9601 22.0166C67.5873 21.7034 68.3238 22.0795 68.3238 22.7129L68.3238 25.8589C68.3238 26.1731 68.1328 26.4713 67.8267 26.6351L64.4875 28.4219C63.859 28.7582 63.0978 28.3842 63.0978 27.7391L63.0978 24.474C63.0978 24.1502 63.3005 23.8444 63.621 23.6843L66.9601 22.0166Z" fill="#121417"/>
<path d="M73.6913 18.765C74.3195 18.4366 75.0723 18.8113 75.0723 19.4525L75.0723 22.6041C75.0723 22.9213 74.8776 23.2219 74.567 23.3846L71.9092 24.7765C71.281 25.1055 70.5277 24.7308 70.5277 24.0894L70.5277 20.9357C70.5277 20.6183 70.7226 20.3175 71.0335 20.1548L73.6913 18.765Z" fill="#121417"/>
<path d="M59.3082 33.8405C59.9242 33.5145 60.6658 33.9132 60.6664 34.5708L60.6695 37.9276C60.6698 38.2578 60.4726 38.5659 60.16 38.7238L56.8015 40.4196C56.186 40.7304 55.4599 40.3301 55.46 39.6799L55.46 36.403C55.46 36.0794 55.6496 35.7767 55.9527 35.6162L59.3082 33.8405Z" fill="#121417"/>
<path d="M66.8311 29.7789C67.4595 29.4428 68.2206 29.8168 68.2206 30.4618L68.2206 33.6942C68.2206 34.0056 68.033 34.3016 67.7311 34.4663L64.4952 36.2328C63.8665 36.576 63.0978 36.2027 63.0978 35.5541L63.0978 32.286C63.0978 31.9717 63.2889 31.6734 63.5951 31.5096L66.8311 29.7789Z" fill="#121417"/>
<path d="M73.7588 26.2036C74.3875 25.859 75.1577 26.2322 75.1577 26.8815L75.1577 29.9667C75.1577 30.2775 74.9707 30.573 74.6698 30.7379L72.1346 32.1274C71.5059 32.472 70.7357 32.0988 70.7357 31.4495L70.7357 28.3644C70.7358 28.0535 70.9227 27.7581 71.2237 27.5931L73.7588 26.2036Z" fill="#121417"/>
<path d="M59.3379 41.7899C59.9538 41.4733 60.6859 41.8732 60.6859 42.5264L60.6859 45.6149C60.6859 45.9329 60.5027 46.2313 60.2076 46.3939L56.9823 48.1706C56.3655 48.5104 55.6096 48.1122 55.6096 47.4474L55.6096 44.2404C55.6096 43.9128 55.8038 43.607 56.1127 43.4482L59.3379 41.7899Z" fill="#121417"/>
<path d="M66.8505 37.6054C67.479 37.2705 68.2387 37.6446 68.2387 38.2891L68.2387 41.5232C68.2387 41.835 68.0505 42.1314 67.7479 42.296L64.4938 44.0661C63.8651 44.4081 63.0978 44.0346 63.0978 43.3867L63.0978 40.1168C63.0978 39.802 63.2895 39.5033 63.5964 39.3397L66.8505 37.6054Z" fill="#121417"/>
<path fill-rule="evenodd" clip-rule="evenodd" d="M75.1993 34.5422C75.1993 33.893 74.4292 33.5198 73.8004 33.8644L71.2653 35.2538C70.9643 35.4188 70.7773 35.7143 70.7773 36.0251L70.7773 38.9238C70.7773 39.5731 71.5475 39.9463 72.1762 39.6017L74.7114 38.2122C75.0124 38.0473 75.1993 37.7518 75.1993 37.441L75.1993 34.5422ZM74.1765 36.2271C74.2003 35.5473 73.3806 35.1573 72.7406 35.5438L72.3462 35.7818C72.0664 35.9508 71.8958 36.2347 71.8958 36.5315L71.8958 37.3234C71.8958 37.9993 72.7237 38.3658 73.3514 37.9678L73.7178 37.7354C73.9778 37.5706 74.1387 37.305 74.1486 37.0247L74.1765 36.2271Z" fill="#121417"/>
<path d="M92.8423 46.6V9H94.3623V46.6H92.8423ZM108.627 39V19.68H112.995L121.031 31.496V19.68H125.371V39H120.975L112.967 27.184V39H108.627ZM135.69 39.336C131.266 39.336 127.962 36.116 127.962 31.86C127.962 27.604 131.266 24.384 135.662 24.384C140.03 24.384 143.362 27.576 143.362 31.916C143.362 32.28 143.334 32.84 143.25 33.176H132.33C132.778 34.8 134.066 35.836 135.774 35.836C137.118 35.836 138.238 35.248 138.77 34.492H143.138C142.074 37.376 139.218 39.336 135.69 39.336ZM135.662 27.884C134.038 27.884 132.806 28.892 132.358 30.46H138.994C138.546 28.892 137.286 27.884 135.662 27.884ZM143.344 39L148.328 31.832L143.428 24.72H148.384L151.128 28.948L153.872 24.72H158.772L153.872 31.804L155.244 33.596C155.944 34.576 156.868 35.052 158.072 35.052H159.024V39H157.624C155.048 39 153.312 38.048 151.8 35.584L151.1 34.576L148.244 39H143.344ZM161.182 39V19.68H165.522V34.912H173.306V39H161.182ZM182.256 39.336C177.832 39.336 174.528 36.116 174.528 31.86C174.528 27.604 177.832 24.384 182.228 24.384C186.596 24.384 189.928 27.576 189.928 31.916C189.928 32.28 189.9 32.84 189.816 33.176H178.896C179.344 34.8 180.632 35.836 182.34 35.836C183.684 35.836 184.804 35.248 185.336 34.492H189.704C188.64 37.376 185.784 39.336 182.256 39.336ZM182.228 27.884C180.604 27.884 179.372 28.892 178.924 30.46H185.56C185.112 28.892 183.852 27.884 182.228 27.884ZM198.371 39.336C194.451 39.336 191.483 36.116 191.483 31.86C191.483 27.604 194.451 24.384 198.371 24.384C200.107 24.384 201.591 25.028 202.683 26.148V24.72H206.771V33.904C206.771 34.632 207.191 35.052 207.919 35.052H208.199V39H207.051C205.091 39 203.803 38.356 203.159 37.068C202.011 38.468 200.359 39.336 198.371 39.336ZM199.183 35.388C201.199 35.388 202.683 33.876 202.683 31.86C202.683 29.844 201.199 28.332 199.183 28.332C197.195 28.332 195.711 29.844 195.711 31.86C195.711 33.876 197.195 35.388 199.183 35.388ZM209.498 39L211.682 27.996C210.898 27.464 210.422 26.512 210.422 25.476C210.422 23.964 211.486 22.928 213.082 22.928C214.594 22.928 215.63 23.88 215.798 25.14L224.618 26.148V27.128C223.078 29.256 222.266 31.104 222.266 32.672C222.266 34.212 223.022 35.052 224.45 35.052H225.066V39H224.086C220.11 39 218.066 36.816 218.066 33.176C218.066 31.944 218.318 30.712 218.906 29.452L215.406 28.976L213.53 39H209.498ZM227.157 39V24.72H231.245V26.12C232.365 24.972 233.821 24.384 235.585 24.384C238.861 24.384 241.045 26.54 241.045 29.816V33.904C241.045 34.632 241.465 35.052 242.193 35.052H242.473V39H241.325C238.441 39 236.957 37.572 236.957 34.8V31.188C236.957 29.452 235.865 28.332 234.213 28.332C232.449 28.332 231.245 29.48 231.245 31.244V39H227.157Z" fill="#121417"/>
</svg>
