<svg width="256" height="256" viewBox="0 0 256 256" fill="none" xmlns="http://www.w3.org/2000/svg">
<path d="M196 0H60C26.8629 0 0 26.8629 0 60V196C0 229.137 26.8629 256 60 256H196C229.137 256 256 229.137 256 196V60C256 26.8629 229.137 0 196 0Z" fill="#C9C9C9"/>
<path d="M119.878 31.1161C124.797 28.3011 131.203 28.2881 136.117 31.1161C160.839 45.0861 185.569 59.0331 210.287 73.0111C214.937 75.6301 218.046 80.8041 217.999 86.1611V170.206C218.034 175.785 214.617 181.083 209.712 183.642C185.071 197.535 160.442 211.444 135.805 225.337C130.786 228.207 124.251 227.986 119.387 224.88C112 220.598 104.6 216.336 97.212 212.058C95.702 211.158 94 210.442 92.934 208.978C93.877 207.708 95.562 207.55 96.931 206.995C100.014 206.014 102.847 204.44 105.679 202.913C106.396 202.423 107.27 202.611 107.957 203.049C114.274 206.671 120.536 210.399 126.874 213.986C128.226 214.767 129.595 213.73 130.751 213.086C154.931 199.419 179.141 185.805 203.318 172.134C204.214 171.703 204.709 170.752 204.636 169.771C204.653 142.046 204.64 114.317 204.645 86.5911C204.747 85.4791 204.103 84.4551 203.096 83.9991C178.541 70.1701 153.997 56.3211 129.446 42.4891C129.021 42.1969 128.517 42.04 128.001 42.0391C127.485 42.0382 126.98 42.1934 126.554 42.4841C102.002 56.3211 77.464 70.1841 52.912 84.0111C51.909 84.4681 51.236 85.4751 51.355 86.5911C51.36 114.317 51.355 142.046 51.355 169.775C51.3121 170.254 51.4172 170.735 51.6561 171.152C51.895 171.57 52.2562 171.904 52.691 172.109C59.242 175.824 65.802 179.513 72.358 183.216C76.052 185.203 80.586 186.385 84.656 184.862C88.246 183.574 90.763 179.909 90.695 176.097C90.729 148.534 90.678 120.967 90.72 93.4071C90.63 92.1841 91.791 91.1731 92.981 91.2891C96.129 91.2671 99.281 91.2461 102.429 91.2971C103.743 91.2671 104.647 92.5851 104.485 93.8171C104.472 121.555 104.519 149.293 104.464 177.03C104.472 184.423 101.435 192.467 94.597 196.084C86.174 200.447 75.762 199.522 67.44 195.338C60.236 191.742 53.36 187.498 46.284 183.646C41.366 181.101 37.966 175.782 38.001 170.207V86.1611C37.949 80.6931 41.183 75.4251 45.976 72.8441C70.613 58.9411 95.246 45.0261 119.878 31.1161Z" fill="#B9B7B7"/>
<path d="M141.372 89.3347C152.117 88.6427 163.62 88.9247 173.289 94.2187C180.776 98.2747 184.926 106.789 185.058 115.106C184.849 116.227 183.676 116.846 182.605 116.769C179.488 116.765 176.369 116.812 173.252 116.748C171.929 116.799 171.161 115.58 170.995 114.411C170.099 110.431 167.928 106.49 164.183 104.57C158.433 101.692 151.767 101.837 145.497 101.897C140.92 102.139 135.998 102.536 132.12 105.227C129.143 107.266 128.239 111.382 129.301 114.697C130.303 117.077 133.05 117.845 135.299 118.553C148.248 121.94 161.97 121.602 174.672 126.059C179.931 127.876 185.075 131.409 186.875 136.915C189.23 144.295 188.198 153.115 182.947 159.039C178.689 163.914 172.488 166.568 166.303 168.009C158.075 169.844 149.536 169.891 141.18 169.076C133.323 168.18 125.146 166.116 119.081 160.763C113.894 156.259 111.361 149.241 111.612 142.469C111.672 141.325 112.811 140.527 113.907 140.621C117.046 140.596 120.186 140.587 123.325 140.626C124.58 140.536 125.509 141.62 125.574 142.802C126.152 146.593 127.577 150.573 130.884 152.82C137.264 156.937 145.271 156.655 152.577 156.77C158.63 156.502 165.425 156.421 170.364 152.42C172.97 150.138 173.742 146.32 173.038 143.036C172.275 140.263 169.374 138.971 166.883 138.126C154.1 134.083 140.224 135.55 127.565 130.977C122.425 129.161 117.455 125.727 115.481 120.447C112.726 112.974 113.988 103.73 119.789 98.0067C125.445 92.3117 133.609 90.1187 141.372 89.3347Z" fill="#B9B7B7"/>
</svg>
