<svg width="262" height="239" viewBox="0 0 262 239" fill="none" xmlns="http://www.w3.org/2000/svg">
<path d="M215.416 77.4647C212.628 76.4841 209.816 75.5755 206.983 74.7396C207.459 72.7459 207.897 70.7764 208.286 68.8414C214.67 37.067 210.497 11.4689 196.241 3.04074C182.573 -5.03901 160.22 3.38597 137.645 23.5297C135.42 25.5185 133.245 27.5646 131.121 29.6662C129.699 28.2688 128.252 26.8985 126.78 25.556C103.121 4.01766 79.4054 -5.06 65.1653 3.39226C51.5096 11.4972 47.466 35.5612 53.2136 65.6746C53.7855 68.657 54.4311 71.624 55.15 74.5728C51.7931 75.5508 48.5539 76.5917 45.4539 77.6998C17.7147 87.6158 0 103.155 0 119.274C0 135.921 19.0175 152.619 47.9092 162.744C50.2515 163.561 52.6133 164.319 54.9924 165.016C54.22 168.192 53.534 171.389 52.9353 174.604C47.4558 204.195 51.7348 227.69 65.3536 235.744C79.4198 244.061 103.028 235.513 126.016 214.91C127.88 213.235 129.703 211.512 131.483 209.744C133.783 212.019 136.145 214.229 138.565 216.369C160.833 236.015 182.825 243.948 196.43 235.872C210.483 227.531 215.051 202.291 209.121 171.582C208.654 169.177 208.13 166.783 207.55 164.403C209.208 163.899 210.835 163.381 212.422 162.841C242.457 152.639 262 136.144 262 119.274C262 103.096 243.713 87.4521 215.416 77.4647ZM208.902 151.95C207.468 152.435 206.001 152.905 204.501 153.361C201.185 142.598 196.711 131.154 191.234 119.329C196.46 107.787 200.763 96.4889 203.985 85.7963C206.666 86.5917 209.266 87.4301 211.774 88.3147C236.019 96.8729 250.808 109.525 250.808 119.274C250.808 129.658 234.836 143.138 208.902 151.95ZM198.142 173.811C200.764 187.389 201.137 199.666 199.4 209.264C197.841 217.889 194.703 223.638 190.822 225.941C182.566 230.842 164.909 224.472 145.865 207.67C143.614 205.68 141.418 203.626 139.278 201.511C146.661 193.233 154.039 183.61 161.24 172.921C173.906 171.769 185.872 169.885 196.723 167.313C197.259 169.525 197.732 171.691 198.142 173.811ZM89.3215 225.094C81.2548 228.015 74.8297 228.099 70.9457 225.803C62.6815 220.916 59.2458 202.05 63.9321 176.745C64.4892 173.755 65.127 170.781 65.8449 167.827C76.5767 170.261 88.4557 172.011 101.151 173.067C108.401 183.526 115.992 193.138 123.643 201.556C122.017 203.169 120.352 204.741 118.651 206.27C108.485 215.38 98.2991 221.844 89.3215 225.094ZM51.5301 151.886C38.7545 147.408 28.2039 141.59 20.9723 135.24C14.4735 129.535 11.1933 123.87 11.1933 119.274C11.1933 109.492 25.416 97.0156 49.1383 88.5361C52.0172 87.5077 55.0302 86.5371 58.1568 85.6263C61.4359 96.5602 65.7364 107.993 70.9263 119.553C65.6689 131.284 61.307 142.899 57.9962 153.962C55.8246 153.324 53.6686 152.632 51.5301 151.886ZM64.1982 63.47C59.2744 37.6704 62.5443 18.2086 70.7738 13.3241C79.5385 8.12154 98.9203 15.5392 119.349 34.1373C120.681 35.3528 121.992 36.5929 123.28 37.8571C115.668 46.238 108.147 55.7795 100.961 66.1761C88.6389 67.3472 76.8438 69.2276 65.9994 71.747C65.3312 69.0043 64.7306 66.2437 64.1982 63.47ZM177.213 92.0838C174.652 87.5476 171.995 83.0684 169.246 78.6494C177.605 79.7333 185.615 81.172 193.136 82.9306C190.878 90.3514 188.064 98.109 184.751 106.063C182.329 101.352 179.816 96.6916 177.213 92.0838ZM131.126 46.0597C136.288 51.7942 141.459 58.1961 146.544 65.1426C136.228 64.643 125.894 64.6409 115.578 65.1363C120.668 58.2538 125.883 51.8603 131.126 46.0597ZM84.7427 92.1615C82.1721 96.7321 79.706 101.364 77.3463 106.052C74.0877 98.1269 71.2988 90.3336 69.0217 82.8078C76.4968 81.0933 84.4684 79.6914 92.7746 78.6274C89.9945 83.0734 87.3165 87.5867 84.7427 92.1615ZM93.0131 160.736C84.4315 159.753 76.3403 158.424 68.8671 156.755C71.1801 149.095 74.0303 141.136 77.3596 133.041C79.7286 137.733 82.205 142.367 84.7867 146.94C87.4415 151.641 90.1904 156.245 93.0131 160.736ZM131.435 193.296C126.129 187.428 120.838 180.936 115.671 173.954C120.688 174.155 125.802 174.258 131 174.258C136.34 174.258 141.619 174.135 146.815 173.898C141.713 181.006 136.562 187.508 131.435 193.296ZM184.856 132.627C188.359 140.812 191.31 148.729 193.654 156.258C186.058 158.036 177.856 159.467 169.214 160.53C171.983 156.029 174.665 151.472 177.257 146.861C179.893 142.175 182.427 137.429 184.856 132.627ZM167.562 141.128C163.593 148.196 159.402 155.131 154.993 161.92C147.008 162.5 139.005 162.788 131 162.784C122.846 162.784 114.916 162.524 107.279 162.016C102.755 155.242 98.4834 148.296 94.4725 141.191C90.4799 134.124 86.7519 126.904 83.2945 119.547C86.7432 112.187 90.4609 104.964 94.4397 97.8918L94.4387 97.8929C98.4155 90.8184 102.653 83.9016 107.143 77.1573C114.934 76.5529 122.924 76.2381 130.999 76.2381C139.111 76.2381 147.112 76.556 154.901 77.1646C159.345 83.8988 163.556 90.7919 167.525 97.8309C171.517 104.888 175.284 112.076 178.82 119.384C175.32 126.766 171.565 134.019 167.562 141.128ZM190.651 12.9809C199.424 18.1688 202.836 39.089 197.324 66.5235C196.97 68.2751 196.578 70.0555 196.147 71.8645C185.276 69.2916 173.473 67.3787 161.115 66.1898C153.916 55.6788 146.456 46.1226 138.967 37.8498C140.93 35.9102 142.939 34.0208 144.993 32.1835C164.336 14.9253 182.414 8.11105 190.651 12.9809ZM131 95.2863C143.921 95.2863 154.396 106.026 154.396 119.274C154.396 132.521 143.921 143.261 131 143.261C118.079 143.261 107.604 132.521 107.604 119.274C107.604 106.026 118.079 95.2863 131 95.2863Z" fill="#C9C9C9"/>
</svg>
