<svg width="163" height="32" viewBox="0 0 163 32" fill="none" xmlns="http://www.w3.org/2000/svg">
<rect x="4.09998" y="5.85535" width="6.83333" height="6.51316" rx="1" fill="#F2F2F2"/>
<rect x="4.09998" y="13.671" width="6.83333" height="6.51316" rx="1" fill="#F2F2F2"/>
<rect x="4.09998" y="21.4868" width="6.83333" height="6.51316" rx="1" fill="#F2F2F2"/>
<rect y="4.55249" width="2.73333" height="23.4474" rx="1" fill="#F2F2F2"/>
<rect x="2.73328" y="4.55249" width="2.60526" height="24.6" rx="1" transform="rotate(-90 2.73328 4.55249)" fill="#F2F2F2"/>
<rect x="12.3" y="5.85535" width="6.83333" height="6.51316" rx="1" fill="#F2F2F2"/>
<rect x="12.3" y="13.671" width="6.83333" height="6.51316" rx="1" fill="#F2F2F2"/>
<rect x="12.3" y="21.4868" width="6.83333" height="6.51316" rx="1" fill="#F2F2F2"/>
<rect x="20.5" y="5.85535" width="6.83333" height="6.51316" rx="1" fill="#F2F2F2"/>
<rect x="20.5" y="13.671" width="6.83333" height="6.51316" rx="1" fill="#F2F2F2"/>
<path fill-rule="evenodd" clip-rule="evenodd" d="M21.5 21.4868C20.9477 21.4868 20.5 21.9345 20.5 22.4868V27C20.5 27.5523 20.9477 28 21.5 28H26.3333C26.8856 28 27.3333 27.5523 27.3333 27V22.4868C27.3333 21.9345 26.8856 21.4868 26.3333 21.4868H21.5ZM22.8667 22.7895C22.3144 22.7895 21.8667 23.2372 21.8667 23.7895V25.6974C21.8667 26.2497 22.3144 26.6974 22.8667 26.6974H24.9667C25.519 26.6974 25.9667 26.2497 25.9667 25.6974V23.7895C25.9667 23.2372 25.519 22.7895 24.9667 22.7895H22.8667Z" fill="#F2F2F2"/>
<path d="M36.3545 25V7.06H40.4105L47.8725 18.032V7.06H51.9025V25H47.8205L40.3845 14.028V25H36.3545ZM61.4839 25.312C57.3759 25.312 54.3079 22.322 54.3079 18.37C54.3079 14.418 57.3759 11.428 61.4579 11.428C65.5139 11.428 68.6079 14.392 68.6079 18.422C68.6079 18.76 68.5819 19.28 68.5039 19.592H58.3639C58.7799 21.1 59.9759 22.062 61.5619 22.062C62.8099 22.062 63.8499 21.516 64.3439 20.814H68.3999C67.4119 23.492 64.7599 25.312 61.4839 25.312ZM61.4579 14.678C59.9499 14.678 58.8059 15.614 58.3899 17.07H64.5519C64.1359 15.614 62.9659 14.678 61.4579 14.678ZM68.5919 25L73.2199 18.344L68.6699 11.74H73.2719L75.8199 15.666L78.3679 11.74H82.9179L78.3679 18.318L79.6419 19.982C80.2919 20.892 81.1499 21.334 82.2679 21.334H83.1519V25H81.8519C79.4599 25 77.8479 24.116 76.4439 21.828L75.7939 20.892L73.1419 25H68.5919ZM85.1553 25V7.06H89.1853V21.204H96.4133V25H85.1553ZM104.724 25.312C100.616 25.312 97.5482 22.322 97.5482 18.37C97.5482 14.418 100.616 11.428 104.698 11.428C108.754 11.428 111.848 14.392 111.848 18.422C111.848 18.76 111.822 19.28 111.744 19.592H101.604C102.02 21.1 103.216 22.062 104.802 22.062C106.05 22.062 107.09 21.516 107.584 20.814H111.64C110.652 23.492 108 25.312 104.724 25.312ZM104.698 14.678C103.19 14.678 102.046 15.614 101.63 17.07H107.792C107.376 15.614 106.206 14.678 104.698 14.678ZM119.688 25.312C116.048 25.312 113.292 22.322 113.292 18.37C113.292 14.418 116.048 11.428 119.688 11.428C121.3 11.428 122.678 12.026 123.692 13.066V11.74H127.488V20.268C127.488 20.944 127.878 21.334 128.554 21.334H128.814V25H127.748C125.928 25 124.732 24.402 124.134 23.206C123.068 24.506 121.534 25.312 119.688 25.312ZM120.442 21.646C122.314 21.646 123.692 20.242 123.692 18.37C123.692 16.498 122.314 15.094 120.442 15.094C118.596 15.094 117.218 16.498 117.218 18.37C117.218 20.242 118.596 21.646 120.442 21.646ZM130.02 25L132.048 14.782C131.32 14.288 130.878 13.404 130.878 12.442C130.878 11.038 131.866 10.076 133.348 10.076C134.752 10.076 135.714 10.96 135.87 12.13L144.06 13.066V13.976C142.63 15.952 141.876 17.668 141.876 19.124C141.876 20.554 142.578 21.334 143.904 21.334H144.476V25H143.566C139.874 25 137.976 22.972 137.976 19.592C137.976 18.448 138.21 17.304 138.756 16.134L135.506 15.692L133.764 25H130.02ZM146.418 25V11.74H150.214V13.04C151.254 11.974 152.606 11.428 154.244 11.428C157.286 11.428 159.314 13.43 159.314 16.472V20.268C159.314 20.944 159.704 21.334 160.38 21.334H160.64V25H159.574C156.896 25 155.518 23.674 155.518 21.1V17.746C155.518 16.134 154.504 15.094 152.97 15.094C151.332 15.094 150.214 16.16 150.214 17.798V25H146.418Z" fill="#F2F2F2"/>
</svg>
