<svg width="512" height="129" viewBox="0 0 512 129" fill="none" xmlns="http://www.w3.org/2000/svg">
<g clip-path="url(#clip0_929_488)">
<path d="M165.325 50.358C165.325 41.173 156.393 31.418 140.938 31.418C123.582 31.418 104.516 44.15 101.602 69.55C98.625 95.204 114.587 106.606 130.676 106.606C146.765 106.606 155.19 100.335 163.805 91.974C156.393 82.662 146.829 86.97 144.992 87.92C142.965 88.933 140.368 90.327 135.047 90.327C128.839 90.327 122.505 87.54 122.505 75.948C162.285 72.021 165.325 59.542 165.325 50.358ZM145.625 51.878C145.372 54.728 144.232 59.606 124.089 62.329C128.333 47.254 136.44 46.114 140.178 46.114C143.662 46.114 145.878 48.837 145.625 51.878ZM78.228 54.348C78.228 54.348 69.678 81.205 68.98 83.422C68.727 81.142 62.456 32.938 62.456 32.938C47.887 32.938 40.096 43.326 35.979 54.285C35.979 54.285 25.59 81.205 24.704 83.485C24.64 81.395 23.12 54.602 23.12 54.602C22.233 41.172 9.945 33.002 0 33.002L12.035 106.036C27.301 105.973 35.535 95.648 39.843 84.689C39.843 84.689 49.027 60.936 49.407 59.859C49.471 60.872 55.995 106.036 55.995 106.036C71.324 106.036 79.559 96.344 83.993 85.766L105.466 33.002C90.326 33.002 82.346 43.326 78.228 54.348ZM221.573 31.291C212.135 31.291 204.914 36.422 198.833 43.96V43.897L204.281 0C191.739 0 181.541 10.895 179.577 27.11L170.075 105.466C177.297 105.466 184.961 103.376 189.078 98.055C192.752 102.805 198.263 106.606 206.434 106.606C227.591 106.606 242.096 82.029 242.096 58.972C241.97 37.942 231.771 31.291 221.573 31.291ZM219.61 68.982C217.393 81.84 210.235 90.582 203.33 90.582C196.363 90.582 193.386 87.477 193.386 87.477C194.716 76.202 195.539 69.298 198.073 63.344C200.607 57.39 206.624 47.888 212.895 47.888C219.039 47.888 221.827 56.06 219.61 68.982ZM294.924 33H280.165L280.229 32.24C281.242 22.612 283.522 17.545 291.06 16.722C296.191 16.215 298.471 13.554 299.041 10.641C299.485 8.361 300.878 0.442 300.878 0.442C271.234 0.252 261.923 13.048 259.516 32.557L259.452 33.001H259.135C254.321 33.001 249.001 38.448 248.114 45.352L247.797 47.886H257.679L249.381 116.423L246.847 128.712C247.164 128.712 247.544 128.775 247.86 128.775C261.733 128.268 270.6 117.31 272.564 101.411L279.025 47.886H283.649C288.209 47.886 293.531 43.326 294.481 35.724L294.924 33ZM371.696 31.734C354.656 31.734 338.567 44.276 333.626 63.975C328.686 83.675 336.16 106.985 361.244 106.985C386.264 106.985 400.707 82.725 400.707 62.518C400.707 42.438 387.088 31.734 371.696 31.734ZM378.6 68.346C377.713 77.277 373.786 90.833 363.018 90.833C352.186 90.833 353.706 74.997 354.783 67.459C355.923 59.415 360.421 47.949 370.113 47.949C378.79 47.949 379.613 58.274 378.6 68.346ZM484.89 54.347C484.89 54.347 476.338 81.204 475.641 83.421C475.388 81.141 469.117 32.937 469.117 32.937C454.548 32.937 446.757 43.325 442.64 54.284C442.64 54.284 432.251 81.204 431.365 83.484C431.301 81.394 429.781 54.601 429.781 54.601C428.894 41.171 416.606 33.001 406.661 33.001L418.633 106.035C433.898 105.972 442.133 95.647 446.44 84.688C446.44 84.688 455.625 60.935 455.942 59.858C456.005 60.871 462.529 106.035 462.529 106.035C477.859 106.035 486.093 96.343 490.527 85.765L512 33.002C496.924 33.002 488.943 43.325 484.89 54.347ZM308.86 0.443L296.444 100.588L293.911 112.94C294.227 112.94 294.607 113.004 294.924 113.004C308.289 112.814 317.791 101.095 319.564 86.336L326.722 28.884C328.876 11.338 318.424 0.444 308.86 0.444" fill="#C9C9C9"/>
</g>
<defs>
<clipPath id="clip0_929_488">
<rect width="512" height="129" fill="white"/>
</clipPath>
</defs>
</svg>
